{
  "accessors": [
    {
      "bufferView": 2,
      "componentType": 5126,
      "count": 1369,
      "max": [
        25.0,
        25.0,
        3.3269400596618652
      ],
      "min": [
        -25.0,
        -25.0,
        -2.391050100326538
      ],
      "type": "VEC3"
    },
    {
      "bufferView": 2,
      "byteOffset": 16428,
      "componentType": 5126,
      "count": 1369,
      "max": [
        0.569739043712616,
        0.41311079263687134,
        1.0
      ],
      "min": [
        -0.569739043712616,
        -0.35035282373428345,
        0.7722058892250061
      ],
      "type": "VEC3"
    },
    {
      "bufferView": 1,
      "componentType": 5126,
      "count": 1369,
      "max": [
        0.9957600235939026,
        0.9957600235939026
      ],
      "min": [
        0.004240000154823065,
        0.004240000154823065
      ],
      "type": "VEC2"
    },
    {
      "bufferView": 0,
      "componentType": 5125,
      "count": 7776,
      "type": "SCALAR"
    },
    {
      "bufferView": 2,
      "byteOffset": 32856,
      "componentType": 5126,
      "count": 38,
      "max": [
        1.8670799732208252,
        0.7848799824714661,
        0.20513999462127686
      ],
      "min": [
        -1.8670799732208252,
        -0.21512000262737274,
        -1.0328999757766724
      ],
      "type": "VEC3"
    },
    {
      "bufferView": 2,
      "byteOffset": 33312,
      "componentType": 5126,
      "count": 38,
      "max": [
        0.7591450810432434,
        0.0,
        1.0
      ],
      "min": [
        -0.7591450810432434,
        0.0,
        0.6509215235710144
      ],
      "type": "VEC3"
    },
    {
      "bufferView": 1,
      "byteOffset": 10952,
      "componentType": 5126,
      "count": 38,
      "max": [
        0.9999099969863892,
        0.9911900162696838
      ],
      "min": [
        9.000000136438757e-05,
        0.00675999978557229
      ],
      "type": "VEC2"
    },
    {
      "bufferView": 0,
      "byteOffset": 31104,
      "componentType": 5125,
      "count": 108,
      "type": "SCALAR"
    },
    {
      "bufferView": 2,
      "byteOffset": 33768,
      "componentType": 5126,
      "count": 65532,
      "max": [
        11.462869644165039,
        7.016479969024658,
        17.37371063232422
      ],
      "min": [
        -10.641240119934082,
        -8.459639549255371,
        5.720089912414551
      ],
      "type": "VEC3"
    },
    {
      "bufferView": 2,
      "byteOffset": 820152,
      "componentType": 5126,
      "count": 65532,
      "max": [
        0.999968945980072,
        0.9999968409538269,
        0.9999988675117493
      ],
      "min": [
        -0.9999672770500183,
        -0.9999893307685852,
        -0.9999986290931702
      ],
      "type": "VEC3"
    },
    {
      "bufferView": 1,
      "byteOffset": 11256,
      "componentType": 5126,
      "count": 65532,
      "max": [
        1.0,
        1.0
      ],
      "min": [
        0.0,
        0.0
      ],
      "type": "VEC2"
    },
    {
      "bufferView": 0,
      "byteOffset": 31536,
      "componentType": 5125,
      "count": 362307,
      "type": "SCALAR"
    },
    {
      "bufferView": 2,
      "byteOffset": 1606536,
      "componentType": 5126,
      "count": 65532,
      "max": [
        11.435179710388184,
        7.318850040435791,
        17.279090881347656
      ],
      "min": [
        -10.583000183105469,
        -8.787210464477539,
        -0.0
      ],
      "type": "VEC3"
    },
    {
      "bufferView": 2,
      "byteOffset": 2392920,
      "componentType": 5126,
      "count": 65532,
      "max": [
        0.9999321699142456,
        0.9999945759773254,
        0.9999956488609314
      ],
      "min": [
        -0.9996857643127441,
        -0.9999862313270569,
        -1.0
      ],
      "type": "VEC3"
    },
    {
      "bufferView": 1,
      "byteOffset": 535512,
      "componentType": 5126,
      "count": 65532,
      "max": [
        1.0,
        1.0
      ],
      "min": [
        0.0,
        0.0
      ],
      "type": "VEC2"
    },
    {
      "bufferView": 0,
      "byteOffset": 1480764,
      "componentType": 5125,
      "count": 362385,
      "type": "SCALAR"
    },
    {
      "bufferView": 2,
      "byteOffset": 3179304,
      "componentType": 5126,
      "count": 36927,
      "max": [
        8.783650398254395,
        7.298220157623291,
        17.0103702545166
      ],
      "min": [
        -9.226539611816406,
        -7.4538397789001465,
        6.296909809112549
      ],
      "type": "VEC3"
    },
    {
      "bufferView": 2,
      "byteOffset": 3622428,
      "componentType": 5126,
      "count": 36927,
      "max": [
        0.9999011158943176,
        0.9999615550041199,
        0.9999797940254211
      ],
      "min": [
        -0.9998371601104736,
        -0.9999606013298035,
        -0.9999821782112122
      ],
      "type": "VEC3"
    },
    {
      "bufferView": 1,
      "byteOffset": 1059768,
      "componentType": 5126,
      "count": 36927,
      "max": [
        1.0,
        1.0
      ],
      "min": [
        0.0,
        0.0
      ],
      "type": "VEC2"
    },
    {
      "bufferView": 0,
      "byteOffset": 2930304,
      "componentType": 5125,
      "count": 204396,
      "type": "SCALAR"
    },
    {
      "bufferView": 2,
      "byteOffset": 4065552,
      "componentType": 5126,
      "count": 4,
      "max": [
        1.0,
        1.0,
        0.0
      ],
      "min": [
        -1.0,
        -1.0,
        0.0
      ],
      "type": "VEC3"
    },
    {
      "bufferView": 2,
      "byteOffset": 4065600,
      "componentType": 5126,
      "count": 4,
      "max": [
        0.0,
        0.0,
        1.0
      ],
      "min": [
        0.0,
        0.0,
        1.0
      ],
      "type": "VEC3"
    },
    {
      "bufferView": 0,
      "byteOffset": 3747888,
      "componentType": 5125,
      "count": 6,
      "type": "SCALAR"
    },
    {
      "bufferView": 2,
      "byteOffset": 4065648,
      "componentType": 5126,
      "count": 4,
      "max": [
        0.8888900279998779,
        0.5,
        0.0
      ],
      "min": [
        -0.8888900279998779,
        -0.5,
        0.0
      ],
      "type": "VEC3"
    },
    {
      "bufferView": 2,
      "byteOffset": 4065696,
      "componentType": 5126,
      "count": 4,
      "max": [
        0.0,
        0.0,
        1.0
      ],
      "min": [
        0.0,
        0.0,
        1.0
      ],
      "type": "VEC3"
    },
    {
      "bufferView": 1,
      "byteOffset": 1355184,
      "componentType": 5126,
      "count": 4,
      "max": [
        1.0,
        1.0
      ],
      "min": [
        0.0,
        0.0
      ],
      "type": "VEC2"
    },
    {
      "bufferView": 0,
      "byteOffset": 3747912,
      "componentType": 5125,
      "count": 6,
      "type": "SCALAR"
    }
  ],
  "asset": {
    "extras": {
      "author": "Isaac Mujica (https://sketchfab.com/Isaac_Mujica)",
      "license": "CC-BY-NC-4.0 (http://creativecommons.org/licenses/by-nc/4.0/)",
      "source": "https://sketchfab.com/3d-models/winnie-the-pooh-storybookchallenge-02e6a3ecfa5241b1b12208fef8499529",
      "title": "Winnie the Pooh #StorybookChallenge"
    },
    "generator": "Sketchfab-12.67.0",
    "version": "2.0"
  },
  "bufferViews": [
    {
      "buffer": 0,
      "byteLength": 3747936,
      "name": "floatBufferViews",
      "target": 34963
    },
    {
      "buffer": 0,
      "byteLength": 1355216,
      "byteOffset": 3747936,
      "byteStride": 8,
      "name": "floatBufferViews",
      "target": 34962
    },
    {
      "buffer": 0,
      "byteLength": 4065744,
      "byteOffset": 5103152,
      "byteStride": 12,
      "name": "floatBufferViews",
      "target": 34962
    }
  ],
  "buffers": [
    {
      "byteLength": 9168896,
      "uri": "scene.bin"
    }
  ],
  "extensionsUsed": [
    "KHR_materials_unlit"
  ],
  "images": [
    {
      "uri": "textures/Pooh__Piglet_baseColor.png"
    },
    {
      "uri": "textures/PoohClassicFondo_baseColor.png"
    },
    {
      "uri": "textures/Suelo_baseColor.png"
    }
  ],
  "materials": [
    {
      "alphaMode": "BLEND",
      "doubleSided": true,
      "extensions": {
        "KHR_materials_unlit": {}
      },
      "name": "Pooh__Piglet",
      "pbrMetallicRoughness": {
        "baseColorTexture": {
          "index": 0
        },
        "metallicFactor": 0.0
      }
    },
    {
      "doubleSided": true,
      "extensions": {
        "KHR_materials_unlit": {}
      },
      "name": "Cespec",
      "pbrMetallicRoughness": {
        "metallicFactor": 0.0
      }
    },
    {
      "doubleSided": true,
      "extensions": {
        "KHR_materials_unlit": {}
      },
      "name": "Arbol",
      "pbrMetallicRoughness": {
        "baseColorFactor": [
          0.24892447702643603,
          0.16583624167634128,
          0.031744496731147605,
          1.0
        ],
        "metallicFactor": 0.0
      }
    },
    {
      "doubleSided": true,
      "extensions": {
        "KHR_materials_unlit": {}
      },
      "name": "PoohClassicFondo",
      "pbrMetallicRoughness": {
        "baseColorTexture": {
          "index": 1
        },
        "metallicFactor": 0.0
      }
    },
    {
      "doubleSided": true,
      "extensions": {
        "KHR_materials_unlit": {}
      },
      "name": "Suelo",
      "pbrMetallicRoughness": {
        "baseColorTexture": {
          "index": 2
        },
        "metallicFactor": 0.0
      }
    }
  ],
  "meshes": [
    {
      "name": "Suelo_0",
      "primitives": [
        {
          "attributes": {
            "NORMAL": 1,
            "POSITION": 0,
            "TEXCOORD_0": 2
          },
          "indices": 3,
          "material": 4,
          "mode": 4
        }
      ]
    },
    {
      "name": "Pooh Classic Fondo_0",
      "primitives": [
        {
          "attributes": {
            "NORMAL": 5,
            "POSITION": 4,
            "TEXCOORD_0": 6
          },
          "indices": 7,
          "material": 3,
          "mode": 4
        }
      ]
    },
    {
      "name": "Tree_0",
      "primitives": [
        {
          "attributes": {
            "NORMAL": 9,
            "POSITION": 8,
            "TEXCOORD_0": 10
          },
          "indices": 11,
          "material": 2,
          "mode": 4
        }
      ]
    },
    {
      "name": "Tree_0",
      "primitives": [
        {
          "attributes": {
            "NORMAL": 13,
            "POSITION": 12,
            "TEXCOORD_0": 14
          },
          "indices": 15,
          "material": 2,
          "mode": 4
        }
      ]
    },
    {
      "name": "Tree_0",
      "primitives": [
        {
          "attributes": {
            "NORMAL": 17,
            "POSITION": 16,
            "TEXCOORD_0": 18
          },
          "indices": 19,
          "material": 2,
          "mode": 4
        }
      ]
    },
    {
      "name": "Plane.001_0",
      "primitives": [
        {
          "attributes": {
            "NORMAL": 21,
            "POSITION": 20
          },
          "indices": 22,
          "material": 1,
          "mode": 4
        }
      ]
    },
    {
      "name": "Pooh & Piglet_0",
      "primitives": [
        {
          "attributes": {
            "NORMAL": 24,
            "POSITION": 23,
            "TEXCOORD_0": 25
          },
          "indices": 26,
          "material": 0,
          "mode": 4
        }
      ]
    }
  ],
  "nodes": [
    {
      "children": [
        1
      ],
      "matrix": [
        1.0,
        0.0,
        0.0,
        0.0,
        0.0,
        2.220446049250313e-16,
        -1.0,
        0.0,
        0.0,
        1.0,
        2.220446049250313e-16,
        0.0,
        0.0,
        0.0,
        0.0,
        1.0
      ],
      "name": "Sketchfab_model"
    },
    {
      "children": [
        2,
        4,
        6,
        10,
        12
      ],
      "name": "Root"
    },
    {
      "children": [
        3
      ],
      "matrix": [
        0.6463400000000001,
        0.0,
        0.0,
        0.0,
        0.0,
        0.6463400000000001,
        0.0,
        0.0,
        0.0,
        0.0,
        0.6463400000000001,
        0.0,
        0.0,
        0.0,
        0.0,
        1.0
      ],
      "name": "Suelo"
    },
    {
      "mesh": 0,
      "name": "Suelo_0"
    },
    {
      "children": [
        5
      ],
      "matrix": [
        15.78375,
        40.84757,
        0.0,
        0.0,
        0.0,
        -0.0,
        43.79099000000001,
        0.0,
        40.84757,
        -15.78375,
        -0.0,
        0.0,
        0.0,
        -0.0,
        0.0,
        1.0
      ],
      "name": "Pooh Classic Fondo"
    },
    {
      "mesh": 1,
      "name": "Pooh Classic Fondo_0"
    },
    {
      "children": [
        7,
        8,
        9
      ],
      "matrix": [
        0.8492400000000001,
        0.0,
        0.0,
        0.0,
        0.0,
        0.8492400000000001,
        0.0,
        0.0,
        0.0,
        0.0,
        0.8492400000000001,
        0.0,
        -2.48003,
        -11.50007,
        0.34323000000000004,
        1.0
      ],
      "name": "Tree"
    },
    {
      "mesh": 2,
      "name": "Tree_0"
    },
    {
      "mesh": 3,
      "name": "Tree_0"
    },
    {
      "mesh": 4,
      "name": "Tree_0"
    },
    {
      "children": [
        11
      ],
      "matrix": [
        2.01519,
        0.0,
        0.0,
        0.0,
        0.0,
        2.01519,
        0.0,
        0.0,
        0.0,
        0.0,
        2.01519,
        0.0,
        -2.2975100000000004,
        -11.237779999999999,
        0.34323000000000004,
        1.0
      ],
      "name": "Plane.001"
    },
    {
      "mesh": 5,
      "name": "Plane.001_0"
    },
    {
      "children": [
        13
      ],
      "matrix": [
        -1.70062,
        2.7918499999999997,
        0.0,
        0.0,
        0.0,
        0.0,
        3.2690200000000003,
        0.0,
        2.7918499999999997,
        1.70062,
        -0.0,
        0.0,
        0.3733600000000001,
        0.0,
        1.87946,
        1.0
      ],
      "name": "Pooh & Piglet"
    },
    {
      "mesh": 6,
      "name": "Pooh & Piglet_0"
    }
  ],
  "samplers": [
    {
      "magFilter": 9729,
      "minFilter": 9987,
      "wrapS": 10497,
      "wrapT": 10497
    }
  ],
  "scene": 0,
  "scenes": [
    {
      "name": "Sketchfab_Scene",
      "nodes": [
        0
      ]
    }
  ],
  "textures": [
    {
      "sampler": 0,
      "source": 0
    },
    {
      "sampler": 0,
      "source": 1
    },
    {
      "sampler": 0,
      "source": 2
    }
  ]
}
